<mxfile host="Electron" agent="Mozilla/5.0 (Windows NT 10.0; Win64; x64) AppleWebKit/537.36 (KHTML, like Gecko) draw.io/24.7.17 Chrome/128.0.6613.36 Electron/32.0.1 Safari/537.36" version="24.7.17">
  <diagram name="ページ1" id="0hcNDv13esWyaW1myS90">
    <mxGraphModel dx="1034" dy="511" grid="1" gridSize="10" guides="1" tooltips="1" connect="1" arrows="1" fold="1" page="1" pageScale="1" pageWidth="1169" pageHeight="827" math="0" shadow="0">
      <root>
        <mxCell id="0" />
        <mxCell id="1" parent="0" />
        <mxCell id="d4MWkUMRP-YSkY36cbGL-1" value="乗り物" style="rounded=0;whiteSpace=wrap;html=1;" vertex="1" parent="1">
          <mxGeometry x="170" y="40" width="120" height="60" as="geometry" />
        </mxCell>
        <mxCell id="d4MWkUMRP-YSkY36cbGL-2" value="車" style="rounded=0;whiteSpace=wrap;html=1;" vertex="1" parent="1">
          <mxGeometry x="70" y="220" width="80" height="60" as="geometry" />
        </mxCell>
        <mxCell id="d4MWkUMRP-YSkY36cbGL-3" value="船" style="rounded=0;whiteSpace=wrap;html=1;" vertex="1" parent="1">
          <mxGeometry x="200" y="220" width="80" height="60" as="geometry" />
        </mxCell>
        <mxCell id="d4MWkUMRP-YSkY36cbGL-4" value="飛行機" style="rounded=0;whiteSpace=wrap;html=1;" vertex="1" parent="1">
          <mxGeometry x="330" y="220" width="120" height="60" as="geometry" />
        </mxCell>
        <mxCell id="d4MWkUMRP-YSkY36cbGL-5" value="" style="endArrow=classic;html=1;rounded=0;entryX=0.133;entryY=0.983;entryDx=0;entryDy=0;entryPerimeter=0;" edge="1" parent="1" target="d4MWkUMRP-YSkY36cbGL-1">
          <mxGeometry width="50" height="50" relative="1" as="geometry">
            <mxPoint x="110" y="220" as="sourcePoint" />
            <mxPoint x="160" y="170" as="targetPoint" />
          </mxGeometry>
        </mxCell>
        <mxCell id="d4MWkUMRP-YSkY36cbGL-6" value="" style="endArrow=classic;html=1;rounded=0;" edge="1" parent="1">
          <mxGeometry width="50" height="50" relative="1" as="geometry">
            <mxPoint x="240" y="220" as="sourcePoint" />
            <mxPoint x="240" y="100" as="targetPoint" />
          </mxGeometry>
        </mxCell>
        <mxCell id="d4MWkUMRP-YSkY36cbGL-7" value="" style="endArrow=classic;html=1;rounded=0;exitX=0.417;exitY=0;exitDx=0;exitDy=0;exitPerimeter=0;" edge="1" parent="1" source="d4MWkUMRP-YSkY36cbGL-4">
          <mxGeometry width="50" height="50" relative="1" as="geometry">
            <mxPoint x="340" y="207" as="sourcePoint" />
            <mxPoint x="280" y="100" as="targetPoint" />
          </mxGeometry>
        </mxCell>
        <mxCell id="d4MWkUMRP-YSkY36cbGL-8" value="車" style="rounded=0;whiteSpace=wrap;html=1;" vertex="1" parent="1">
          <mxGeometry x="760" y="40" width="120" height="60" as="geometry" />
        </mxCell>
        <mxCell id="d4MWkUMRP-YSkY36cbGL-9" value="エンジン" style="rounded=0;whiteSpace=wrap;html=1;" vertex="1" parent="1">
          <mxGeometry x="640" y="200" width="120" height="60" as="geometry" />
        </mxCell>
        <mxCell id="d4MWkUMRP-YSkY36cbGL-10" value="ボディ" style="rounded=0;whiteSpace=wrap;html=1;" vertex="1" parent="1">
          <mxGeometry x="880" y="200" width="120" height="60" as="geometry" />
        </mxCell>
        <mxCell id="d4MWkUMRP-YSkY36cbGL-11" value="ハンドル" style="rounded=0;whiteSpace=wrap;html=1;" vertex="1" parent="1">
          <mxGeometry x="760" y="354" width="120" height="60" as="geometry" />
        </mxCell>
        <mxCell id="d4MWkUMRP-YSkY36cbGL-12" value="ライト" style="rounded=0;whiteSpace=wrap;html=1;" vertex="1" parent="1">
          <mxGeometry x="1000" y="354" width="120" height="60" as="geometry" />
        </mxCell>
        <mxCell id="d4MWkUMRP-YSkY36cbGL-13" value="" style="endArrow=diamondThin;endFill=0;endSize=24;html=1;rounded=0;entryX=0.322;entryY=1.011;entryDx=0;entryDy=0;entryPerimeter=0;exitX=0.5;exitY=0;exitDx=0;exitDy=0;" edge="1" parent="1" source="d4MWkUMRP-YSkY36cbGL-9" target="d4MWkUMRP-YSkY36cbGL-8">
          <mxGeometry width="160" relative="1" as="geometry">
            <mxPoint x="630" y="170" as="sourcePoint" />
            <mxPoint x="800" y="110" as="targetPoint" />
          </mxGeometry>
        </mxCell>
        <mxCell id="d4MWkUMRP-YSkY36cbGL-14" value="" style="endArrow=diamondThin;endFill=0;endSize=24;html=1;rounded=0;entryX=0.656;entryY=0.978;entryDx=0;entryDy=0;entryPerimeter=0;exitX=0.5;exitY=0;exitDx=0;exitDy=0;" edge="1" parent="1" source="d4MWkUMRP-YSkY36cbGL-10" target="d4MWkUMRP-YSkY36cbGL-8">
          <mxGeometry width="160" relative="1" as="geometry">
            <mxPoint x="870" y="209" as="sourcePoint" />
            <mxPoint x="969" y="110" as="targetPoint" />
          </mxGeometry>
        </mxCell>
        <mxCell id="d4MWkUMRP-YSkY36cbGL-15" value="" style="endArrow=diamondThin;endFill=0;endSize=24;html=1;rounded=0;exitX=0.5;exitY=0;exitDx=0;exitDy=0;entryX=0.628;entryY=0.989;entryDx=0;entryDy=0;entryPerimeter=0;" edge="1" parent="1" source="d4MWkUMRP-YSkY36cbGL-12" target="d4MWkUMRP-YSkY36cbGL-10">
          <mxGeometry width="160" relative="1" as="geometry">
            <mxPoint x="1000" y="359" as="sourcePoint" />
            <mxPoint x="960" y="270" as="targetPoint" />
          </mxGeometry>
        </mxCell>
        <mxCell id="d4MWkUMRP-YSkY36cbGL-16" value="" style="endArrow=diamondThin;endFill=0;endSize=24;html=1;rounded=0;entryX=0.25;entryY=1;entryDx=0;entryDy=0;exitX=0.5;exitY=0;exitDx=0;exitDy=0;" edge="1" parent="1" source="d4MWkUMRP-YSkY36cbGL-11" target="d4MWkUMRP-YSkY36cbGL-10">
          <mxGeometry width="160" relative="1" as="geometry">
            <mxPoint x="810" y="359" as="sourcePoint" />
            <mxPoint x="909" y="260" as="targetPoint" />
          </mxGeometry>
        </mxCell>
      </root>
    </mxGraphModel>
  </diagram>
</mxfile>
